<svg width="16" height="21" viewBox="0 0 16 21" fill="none" xmlns="http://www.w3.org/2000/svg">
<path d="M8.2375 5.49551C9.125 5.49551 10.2375 4.89551 10.9 4.09551C11.5 3.37051 11.9375 2.35801 11.9375 1.34551C11.9375 1.20801 11.925 1.07051 11.9 0.958008C10.9125 0.995508 9.725 1.62051 9.0125 2.45801C8.45 3.09551 7.9375 4.09551 7.9375 5.12051C7.9375 5.27051 7.9625 5.42051 7.975 5.47051C8.0375 5.48301 8.1375 5.49551 8.2375 5.49551ZM5.1125 20.6205C6.325 20.6205 6.8625 19.808 8.375 19.808C9.9125 19.808 10.25 20.5955 11.6 20.5955C12.925 20.5955 13.8125 19.3705 14.65 18.1705C15.5875 16.7955 15.975 15.4455 16 15.383C15.9125 15.358 13.375 14.3205 13.375 11.408C13.375 8.88301 15.375 7.74551 15.4875 7.65801C14.1625 5.75801 12.15 5.70801 11.6 5.70801C10.1125 5.70801 8.9 6.60801 8.1375 6.60801C7.3125 6.60801 6.225 5.75801 4.9375 5.75801C2.4875 5.75801 0 7.78301 0 11.608C0 13.983 0.925 16.4955 2.0625 18.1205C3.0375 19.4955 3.8875 20.6205 5.1125 20.6205Z" fill="#0E1300"/>
</svg>
