<svg width="50" height="51" viewBox="0 0 50 51" fill="none" xmlns="http://www.w3.org/2000/svg">
<rect y="0.333984" width="50" height="50" rx="8" fill="#CEEF0A" fill-opacity="0.04"/>
<path fill-rule="evenodd" clip-rule="evenodd" d="M26.5451 9.17131L40.7117 17.088C41.1276 17.2956 41.4773 17.615 41.7217 18.0104C41.9661 18.4058 42.0953 18.8615 42.0951 19.3263V21.7263C42.0951 22.8763 41.1617 23.8096 40.0117 23.8096H38.7617V37.143H40.4284C40.8704 37.143 41.2943 37.3186 41.6069 37.6311C41.9195 37.9437 42.0951 38.3676 42.0951 38.8096C42.0951 39.2517 41.9195 39.6756 41.6069 39.9882C41.2943 40.3007 40.8704 40.4763 40.4284 40.4763H10.4284C9.98636 40.4763 9.56243 40.3007 9.24987 39.9882C8.93731 39.6756 8.76172 39.2517 8.76172 38.8096C8.76172 38.3676 8.93731 37.9437 9.24987 37.6311C9.56243 37.3186 9.98636 37.143 10.4284 37.143H12.0951V23.8096H10.8451C9.69505 23.8096 8.76172 22.8763 8.76172 21.7263V19.3263C8.76172 18.4563 9.21172 17.6563 9.93839 17.203L24.3101 9.17131C24.6573 8.99764 25.0402 8.90723 25.4284 8.90723C25.8166 8.90723 26.1978 8.99764 26.5451 9.17131ZM33.7617 23.8096H17.0951V37.143H20.4284V27.143H23.7617V37.143H27.0951V27.143H30.4284V37.143H33.7617V23.8096ZM25.4284 15.4763C24.9864 15.4763 24.5624 15.6519 24.2499 15.9645C23.9373 16.277 23.7617 16.7009 23.7617 17.143C23.7617 17.585 23.9373 18.0089 24.2499 18.3215C24.5624 18.634 24.9864 18.8096 25.4284 18.8096C25.8704 18.8096 26.2943 18.634 26.6069 18.3215C26.9195 18.0089 27.0951 17.585 27.0951 17.143C27.0951 16.7009 26.9195 16.277 26.6069 15.9645C26.2943 15.6519 25.8704 15.4763 25.4284 15.4763Z" fill="#CEEF0A"/>
</svg>
