<svg width="38" height="37" viewBox="0 0 38 37" fill="none" xmlns="http://www.w3.org/2000/svg">
<path fill-rule="evenodd" clip-rule="evenodd" d="M13.1704 6.31543H25.0424C26.4892 6.31543 27.212 6.31543 27.7963 6.51891C28.3469 6.71456 28.8451 7.03432 29.2523 7.45342C29.6595 7.87252 29.9647 8.37973 30.1444 8.93575C30.3417 9.53746 30.3417 10.2815 30.3417 11.7708V29.2529C30.3417 30.324 29.112 30.8933 28.3343 30.1817C28.1161 29.9801 27.8299 29.8681 27.5329 29.8681C27.2358 29.8681 26.9496 29.9801 26.7314 30.1817L26.1284 30.7335C25.7462 31.087 25.2447 31.2833 24.724 31.2833C24.2034 31.2833 23.7019 31.087 23.3196 30.7335C22.9374 30.38 22.4359 30.1836 21.9152 30.1836C21.3946 30.1836 20.8931 30.38 20.5108 30.7335C20.1285 31.087 19.627 31.2833 19.1064 31.2833C18.5857 31.2833 18.0842 31.087 17.702 30.7335C17.3197 30.38 16.8182 30.1836 16.2976 30.1836C15.7769 30.1836 15.2754 30.38 14.8932 30.7335C14.5109 31.087 14.0094 31.2833 13.4887 31.2833C12.9681 31.2833 12.4666 31.087 12.0843 30.7335L11.4814 30.1817C11.2632 29.9801 10.977 29.8681 10.6799 29.8681C10.3828 29.8681 10.0967 29.9801 9.87847 30.1817C9.10073 30.8933 7.87109 30.324 7.87109 29.2529V11.7708C7.87109 10.2815 7.87109 9.53621 8.06834 8.937C8.44285 7.79724 9.31046 6.90341 10.4165 6.51891C11.0007 6.31543 11.7236 6.31543 13.1704 6.31543ZM12.8646 12.2452C12.6162 12.2452 12.3781 12.3438 12.2025 12.5194C12.0269 12.695 11.9283 12.9331 11.9283 13.1814C11.9283 13.4298 12.0269 13.6679 12.2025 13.8435C12.3781 14.0191 12.6162 14.1177 12.8646 14.1177H13.4887C13.7371 14.1177 13.9752 14.0191 14.1508 13.8435C14.3264 13.6679 14.425 13.4298 14.425 13.1814C14.425 12.9331 14.3264 12.695 14.1508 12.5194C13.9752 12.3438 13.7371 12.2452 13.4887 12.2452H12.8646ZM17.2338 12.2452C16.9855 12.2452 16.7474 12.3438 16.5718 12.5194C16.3962 12.695 16.2976 12.9331 16.2976 13.1814C16.2976 13.4298 16.3962 13.6679 16.5718 13.8435C16.7474 14.0191 16.9855 14.1177 17.2338 14.1177H25.3482C25.5965 14.1177 25.8347 14.0191 26.0103 13.8435C26.1859 13.6679 26.2845 13.4298 26.2845 13.1814C26.2845 12.9331 26.1859 12.695 26.0103 12.5194C25.8347 12.3438 25.5965 12.2452 25.3482 12.2452H17.2338ZM12.8646 16.6144C12.6162 16.6144 12.3781 16.7131 12.2025 16.8887C12.0269 17.0643 11.9283 17.3024 11.9283 17.5507C11.9283 17.799 12.0269 18.0372 12.2025 18.2128C12.3781 18.3884 12.6162 18.487 12.8646 18.487H13.4887C13.7371 18.487 13.9752 18.3884 14.1508 18.2128C14.3264 18.0372 14.425 17.799 14.425 17.5507C14.425 17.3024 14.3264 17.0643 14.1508 16.8887C13.9752 16.7131 13.7371 16.6144 13.4887 16.6144H12.8646ZM17.2338 16.6144C16.9855 16.6144 16.7474 16.7131 16.5718 16.8887C16.3962 17.0643 16.2976 17.3024 16.2976 17.5507C16.2976 17.799 16.3962 18.0372 16.5718 18.2128C16.7474 18.3884 16.9855 18.487 17.2338 18.487H25.3482C25.5965 18.487 25.8347 18.3884 26.0103 18.2128C26.1859 18.0372 26.2845 17.799 26.2845 17.5507C26.2845 17.3024 26.1859 17.0643 26.0103 16.8887C25.8347 16.7131 25.5965 16.6144 25.3482 16.6144H17.2338ZM12.8646 20.9837C12.6162 20.9837 12.3781 21.0824 12.2025 21.258C12.0269 21.4335 11.9283 21.6717 11.9283 21.92C11.9283 22.1683 12.0269 22.4065 12.2025 22.5821C12.3781 22.7576 12.6162 22.8563 12.8646 22.8563H13.4887C13.7371 22.8563 13.9752 22.7576 14.1508 22.5821C14.3264 22.4065 14.425 22.1683 14.425 21.92C14.425 21.6717 14.3264 21.4335 14.1508 21.258C13.9752 21.0824 13.7371 20.9837 13.4887 20.9837H12.8646ZM17.2338 20.9837C16.9855 20.9837 16.7474 21.0824 16.5718 21.258C16.3962 21.4335 16.2976 21.6717 16.2976 21.92C16.2976 22.1683 16.3962 22.4065 16.5718 22.5821C16.7474 22.7576 16.9855 22.8563 17.2338 22.8563H25.3482C25.5965 22.8563 25.8347 22.7576 26.0103 22.5821C26.1859 22.4065 26.2845 22.1683 26.2845 21.92C26.2845 21.6717 26.1859 21.4335 26.0103 21.258C25.8347 21.0824 25.5965 20.9837 25.3482 20.9837H17.2338Z" fill="#CEEF0A"/>
</svg>
