<svg width="35" height="21" viewBox="0 0 35 21" fill="none" xmlns="http://www.w3.org/2000/svg">
<g filter="url(#filter0_d_960_6632)">
<path fill-rule="evenodd" clip-rule="evenodd" d="M1.93254 0.802734C1.28591 0.802734 0.761719 1.32693 0.761719 1.97355V18.8022C0.761719 19.4488 1.28591 19.973 1.93254 19.973H30.236C30.7898 19.973 31.3201 19.7496 31.7069 19.3533L34.1235 16.8776C34.1245 16.8766 34.1261 16.877 34.1266 16.8783V16.8783C34.1272 16.8803 34.1301 16.8799 34.1301 16.8778V1.97355C34.1301 1.32693 33.6059 0.802734 32.9593 0.802734H1.93254Z" fill="#CEEF0A"/>
</g>
<g opacity="0.5">
<rect x="4.15606" y="6.49432" width="9.74343" height="6.97324" rx="1.62391" stroke="white" stroke-opacity="0.2" stroke-width="0.191048"/>
<rect x="4.25159" y="6.59082" width="9.55238" height="6.78219" rx="1.44733" fill="black"/>
<path fill-rule="evenodd" clip-rule="evenodd" d="M9.02768 6.6582L7.96631 8.43062C7.96631 8.43062 8.39086 9.98148 7.96631 11.3108L9.02768 13.3048L10.0891 11.3108C10.0891 11.3108 9.66451 10.203 10.0891 8.43062C10.0891 8.43062 9.02768 6.6582 9.02768 6.6582Z" stroke="white" stroke-opacity="0.2" stroke-width="0.376306" stroke-linejoin="bevel"/>
<path d="M4.25146 8.51245H7.96628" stroke="white" stroke-opacity="0.2" stroke-width="0.376306" stroke-linejoin="bevel"/>
<path d="M9.98267 8.51245H13.8036" stroke="white" stroke-opacity="0.2" stroke-width="0.376306" stroke-linejoin="bevel"/>
<path d="M4.25146 11.2244H7.96628" stroke="white" stroke-opacity="0.2" stroke-width="0.376306" stroke-linejoin="bevel"/>
<path d="M9.98267 11.2244H13.8036" stroke="white" stroke-opacity="0.2" stroke-width="0.376306" stroke-linejoin="bevel"/>
</g>
<path d="M24.0363 8.13837V13.1025C24.0365 13.1416 24.0286 13.1802 24.0131 13.2158C23.9976 13.2515 23.9748 13.2832 23.9464 13.309C23.9181 13.3347 23.8847 13.3539 23.8485 13.3652C23.8123 13.3764 23.7743 13.3795 23.7368 13.3743C23.2332 13.2995 22.7725 13.0394 22.4391 12.6418C22.1058 12.2441 21.9223 11.7355 21.9221 11.2091V8.44437C21.9223 8.29217 21.9691 8.14396 22.056 8.0211C22.1428 7.89823 22.2651 7.80705 22.4052 7.76071C22.4895 7.73312 22.5751 7.71885 22.6594 7.75025C22.7286 7.77625 22.7967 7.8051 22.8644 7.83491C22.9322 7.86472 22.9956 7.88247 23.0625 7.90499C23.1526 7.9367 23.243 7.96333 23.3344 7.9887C23.4257 8.01407 23.525 8.0388 23.6213 8.06037C23.7175 8.08193 23.8211 8.10222 23.9208 8.11871C23.96 8.12632 23.9983 8.13235 24.0363 8.13837Z" fill="#0D0D0D" stroke="white" stroke-width="0.00807137" stroke-miterlimit="10"/>
<path d="M28.433 8.54427V11.2079C28.4331 11.7344 28.2497 12.2434 27.9164 12.6413C27.583 13.0392 27.1221 13.2995 26.6183 13.3743C26.5809 13.3794 26.5429 13.3763 26.5068 13.3649C26.4707 13.3536 26.4373 13.3345 26.409 13.3087C26.3806 13.283 26.358 13.2513 26.3424 13.2157C26.3269 13.1801 26.319 13.1415 26.3191 13.1025V8.12412C26.5185 8.08945 26.7168 8.04537 26.9138 7.99189C27.0487 7.95447 27.1823 7.91262 27.3138 7.86505C27.4275 7.82319 27.5404 7.76168 27.6624 7.74297C27.7936 7.72299 27.9214 7.76929 28.0345 7.83588C28.1556 7.90733 28.2562 8.01065 28.3262 8.13534C28.3962 8.26004 28.433 8.40167 28.433 8.54586V8.54427Z" fill="#0D0D0D" stroke="white" stroke-width="0.00807137" stroke-miterlimit="10"/>
<path d="M26.3188 8.12305V9.93366L25.447 11.2493C25.4181 11.293 25.3793 11.3287 25.334 11.3534C25.2887 11.3781 25.2383 11.391 25.1872 11.391C25.136 11.391 25.0856 11.3781 25.0403 11.3534C24.995 11.3287 24.9563 11.293 24.9274 11.2493L24.0363 9.90259V8.13858C24.3982 8.19365 24.7636 8.221 25.1294 8.2204C25.5277 8.22114 25.9255 8.18859 26.3188 8.12305Z" fill="#0D0D0D" stroke="white" stroke-width="0.00807137" stroke-miterlimit="10"/>
<path d="M23.2813 7.25837C23.3818 7.07287 23.6408 6.92351 23.7993 6.85978C24.1287 6.72541 24.4749 6.64 24.8275 6.6061C25.3854 6.55537 25.9874 6.63052 26.5134 6.83822C26.7504 6.93334 27.2556 7.20414 27.0851 7.53963C27.0391 7.62699 26.9622 7.69255 26.8706 7.7226C26.5312 7.83675 26.175 7.87702 25.8191 7.89763C25.3527 7.92554 24.885 7.92554 24.4185 7.89763C24.1344 7.88051 23.8505 7.84848 23.5759 7.76889C23.4799 7.74189 23.3935 7.68684 23.327 7.61034C23.2184 7.48953 23.2221 7.36777 23.2813 7.25837Z" fill="white" stroke="white" stroke-width="0.00269046" stroke-miterlimit="10"/>
<defs>
<filter id="filter0_d_960_6632" x="0.365639" y="0.406654" width="34.5566" height="20.3582" filterUnits="userSpaceOnUse" color-interpolation-filters="sRGB">
<feFlood flood-opacity="0" result="BackgroundImageFix"/>
<feColorMatrix in="SourceAlpha" type="matrix" values="0 0 0 0 0 0 0 0 0 0 0 0 0 0 0 0 0 0 127 0" result="hardAlpha"/>
<feOffset dx="0.19804" dy="0.19804"/>
<feGaussianBlur stdDeviation="0.29706"/>
<feColorMatrix type="matrix" values="0 0 0 0 1 0 0 0 0 1 0 0 0 0 1 0 0 0 0.25 0"/>
<feBlend mode="normal" in2="BackgroundImageFix" result="effect1_dropShadow_960_6632"/>
<feBlend mode="normal" in="SourceGraphic" in2="effect1_dropShadow_960_6632" result="shape"/>
</filter>
</defs>
</svg>
