<svg width="50" height="51" viewBox="0 0 50 51" fill="none" xmlns="http://www.w3.org/2000/svg">
<rect y="0.936523" width="50" height="50" rx="25" fill="white"/>
<path d="M34.2999 13.3369H14.6999C13.1599 13.3369 11.8999 14.5969 11.8999 16.1369V35.7369C11.8999 37.2783 13.1599 38.5369 14.6999 38.5369H24.4999V28.7369H21.6999V25.2719H24.4999V22.4019C24.4999 19.3723 26.1967 17.2443 29.7723 17.2443L32.2965 17.2471V20.8941H30.6207C29.2291 20.8941 28.6999 21.9385 28.6999 22.9073V25.2733H32.2951L31.4999 28.7369H28.6999V38.5369H34.2999C35.8399 38.5369 37.0999 37.2783 37.0999 35.7369V16.1369C37.0999 14.5969 35.8399 13.3369 34.2999 13.3369Z" fill="black"/>
</svg>
