<svg width="50" height="51" viewBox="0 0 50 51" fill="none" xmlns="http://www.w3.org/2000/svg">
<rect y="0.936523" width="50" height="50" rx="25" fill="white"/>
<path d="M24.4997 21.7712C22.2059 21.7712 20.334 23.6431 20.334 25.9369C20.334 28.2306 22.2059 30.1025 24.4997 30.1025C26.7934 30.1025 28.6653 28.2306 28.6653 25.9369C28.6653 23.6431 26.7934 21.7712 24.4997 21.7712ZM36.9934 25.9369C36.9934 24.2119 37.009 22.5025 36.9122 20.7806C36.8153 18.7806 36.359 17.0056 34.8965 15.5431C33.4309 14.0775 31.659 13.6244 29.659 13.5275C27.934 13.4306 26.2247 13.4462 24.5028 13.4462C22.7778 13.4462 21.0684 13.4306 19.3465 13.5275C17.3465 13.6244 15.5715 14.0806 14.109 15.5431C12.6434 17.0087 12.1903 18.7806 12.0934 20.7806C11.9965 22.5056 12.0122 24.215 12.0122 25.9369C12.0122 27.6587 11.9965 29.3712 12.0934 31.0931C12.1903 33.0931 12.6465 34.8681 14.109 36.3306C15.5747 37.7962 17.3465 38.2494 19.3465 38.3462C21.0715 38.4431 22.7809 38.4275 24.5028 38.4275C26.2278 38.4275 27.9372 38.4431 29.659 38.3462C31.659 38.2494 33.434 37.7931 34.8965 36.3306C36.3622 34.865 36.8153 33.0931 36.9122 31.0931C37.0122 29.3712 36.9934 27.6619 36.9934 25.9369ZM24.4997 32.3462C20.9528 32.3462 18.0903 29.4837 18.0903 25.9369C18.0903 22.39 20.9528 19.5275 24.4997 19.5275C28.0465 19.5275 30.909 22.39 30.909 25.9369C30.909 29.4837 28.0465 32.3462 24.4997 32.3462ZM31.1715 20.7619C30.3434 20.7619 29.6747 20.0931 29.6747 19.265C29.6747 18.4369 30.3434 17.7681 31.1715 17.7681C31.9997 17.7681 32.6684 18.4369 32.6684 19.265C32.6687 19.4616 32.6301 19.6564 32.555 19.8381C32.4798 20.0198 32.3696 20.1849 32.2305 20.324C32.0915 20.463 31.9264 20.5733 31.7447 20.6484C31.5629 20.7236 31.3682 20.7621 31.1715 20.7619Z" fill="black"/>
</svg>
