<svg width="50" height="51" viewBox="0 0 50 51" fill="none" xmlns="http://www.w3.org/2000/svg">
<rect y="0.936523" width="50" height="50" rx="25" fill="white"/>
<path fill-rule="evenodd" clip-rule="evenodd" d="M14 16.8581C14 16.3484 14.2024 15.8597 14.5628 15.4993C14.9232 15.139 15.4119 14.9365 15.9215 14.9365H35.0764C35.3289 14.9361 35.5791 14.9855 35.8125 15.0819C36.0459 15.1783 36.2581 15.3198 36.4368 15.4983C36.6154 15.6768 36.7572 15.8888 36.8538 16.1221C36.9505 16.3554 37.0001 16.6055 37 16.8581V36.0129C37.0003 36.2655 36.9507 36.5157 36.8542 36.7491C36.7577 36.9826 36.6161 37.1947 36.4376 37.3733C36.259 37.552 36.0469 37.6937 35.8136 37.7904C35.5802 37.887 35.33 37.9367 35.0774 37.9365H15.9215C15.6691 37.9365 15.4192 37.8868 15.186 37.7902C14.9528 37.6935 14.7409 37.5519 14.5624 37.3733C14.384 37.1948 14.2425 36.9829 14.146 36.7496C14.0495 36.5163 13.9999 36.2664 14 36.0139V16.8581ZM23.1038 23.7058H26.2182V25.2698C26.6678 24.3707 27.8178 23.5615 29.5459 23.5615C32.859 23.5615 33.6441 25.3524 33.6441 28.6383V34.7249H30.2913V29.3868C30.2913 27.5154 29.8418 26.4595 28.7001 26.4595C27.1163 26.4595 26.4576 27.598 26.4576 29.3868V34.7249H23.1038V23.7058ZM17.3538 34.5817H20.7076V23.5615H17.3538V34.5806V34.5817ZM21.1875 19.9673C21.1938 20.2544 21.1427 20.5399 21.0372 20.8071C20.9317 21.0742 20.7739 21.3176 20.573 21.5229C20.3722 21.7282 20.1323 21.8914 19.8676 22.0028C19.6028 22.1141 19.3185 22.1715 19.0313 22.1715C18.744 22.1715 18.4597 22.1141 18.1949 22.0028C17.9302 21.8914 17.6903 21.7282 17.4895 21.5229C17.2886 21.3176 17.1308 21.0742 17.0253 20.8071C16.9198 20.5399 16.8687 20.2544 16.875 19.9673C16.8874 19.4036 17.12 18.8672 17.5231 18.473C17.9261 18.0787 18.4675 17.858 19.0313 17.858C19.595 17.858 20.1364 18.0787 20.5394 18.473C20.9425 18.8672 21.1751 19.4036 21.1875 19.9673Z" fill="#0D0D0D"/>
</svg>
