<svg width="16" height="18" viewBox="0 0 16 18" fill="none" xmlns="http://www.w3.org/2000/svg">
<path d="M7.47043 8.59926L0.0683594 16.4499C0.0690546 16.4513 0.0690545 16.4534 0.0697497 16.4548C0.297089 17.3072 1.07574 17.9346 2.00039 17.9346C2.37025 17.9346 2.71717 17.8345 3.01473 17.6595L3.03836 17.6456L11.37 12.8414L7.47043 8.59926Z" fill="#0E1300"/>
<path d="M14.959 7.2627L14.9521 7.25784L11.355 5.17429L7.30249 8.77794L11.3696 12.8408L14.9472 10.7781C15.5743 10.4391 16.0005 9.77838 16.0005 9.01693C16.0005 8.25966 15.5805 7.60243 14.959 7.2627Z" fill="black" fill-opacity="0.8"/>
<path d="M0.0681321 1.54996C0.0236377 1.71392 0 1.88622 0 2.06408V15.9368C0 16.1146 0.0236377 16.2869 0.0688274 16.4502L7.72465 8.80034L0.0681321 1.54996Z" fill="#0E1300"/>
<path d="M7.52499 9L11.3557 5.17264L3.03383 0.351101C2.7314 0.169772 2.37823 0.0655603 2.00072 0.0655603C1.07607 0.0655603 0.296027 0.694305 0.068688 1.54745C0.068688 1.54815 0.0679932 1.54884 0.0679932 1.54954L7.52499 9Z" fill="black" fill-opacity="0.8"/>
</svg>
