<svg width="50" height="51" viewBox="0 0 50 51" fill="none" xmlns="http://www.w3.org/2000/svg">
<rect y="0.171875" width="50" height="50" rx="8" fill="#CEEF0A" fill-opacity="0.04"/>
<g clip-path="url(#clip0_406_24902)">
<path d="M11.0771 11.9766H15.5771V16.4766H11.0771V11.9766Z" fill="#CEEF0A"/>
<path d="M20.0771 7.47656V20.9766H6.57715V7.47656H20.0771ZM17.8271 9.72656H8.82715V18.7266H17.8271V9.72656ZM15.5771 34.4766H11.0771V38.9766H15.5771V34.4766Z" fill="#CEEF0A"/>
<path d="M20.0771 29.9766V43.4766H6.57715V29.9766H20.0771ZM8.82715 32.2266V41.2266H17.8271V32.2266H8.82715ZM33.5771 11.9766H38.0771V16.4766H33.5771V11.9766Z" fill="#CEEF0A"/>
<path d="M29.0771 7.47656V20.9766H42.5771V7.47656H29.0771ZM40.3271 9.72656V18.7266H31.3271V9.72656H40.3271ZM24.5771 9.72656V7.47656H26.8271V11.9766H24.5771V16.4766H22.3271V9.72656H24.5771ZM24.5771 20.9766V16.4766H26.8271V20.9766H24.5771ZM20.0771 25.4766V23.2266H22.3271V20.9766H24.5771V25.4766H26.8271V23.2266H38.0771V25.4766H29.0771V27.7266H22.3271V25.4766H20.0771ZM20.0771 25.4766V27.7266H11.0771V25.4766H8.82715V27.7266H6.57715V23.2266H13.3271V25.4766H20.0771ZM42.5771 27.7266H40.3271V23.2266H42.5771V27.7266ZM40.3271 27.7266H38.0771V32.2266H42.5771V29.9766H40.3271V27.7266ZM31.3271 27.7266H35.8271V29.9766H33.5771V32.2266H31.3271V27.7266ZM35.8271 34.4766V32.2266H33.5771V34.4766H31.3271V36.7266H26.8271V38.9766H33.5771V34.4766H35.8271ZM35.8271 34.4766H42.5771V36.7266H38.0771V38.9766H35.8271V34.4766ZM26.8271 32.2266V34.4766H29.0771V29.9766H22.3271V32.2266H26.8271Z" fill="#CEEF0A"/>
<path d="M22.3271 34.4766H24.5771V41.2266H33.5771V43.4766H22.3271V34.4766ZM42.5771 38.9766V43.4766H35.8271V41.2266H40.3271V38.9766H42.5771Z" fill="#CEEF0A"/>
</g>
<defs>
<clipPath id="clip0_406_24902">
<rect width="36" height="36" fill="white" transform="translate(6.57715 7.47656)"/>
</clipPath>
</defs>
</svg>
