<svg width="58" height="58" viewBox="0 0 58 58" fill="none" xmlns="http://www.w3.org/2000/svg">
<g clip-path="url(#clip0_999_16580)">
<path d="M23.4468 8.12402H1.69272C0.757894 8.12402 0.000244141 8.88167 0.000244141 9.8165V31.5706C0.000244141 32.5054 0.757894 33.2631 1.69272 33.2631H10.8771V47.8863C10.8771 48.8207 11.6347 49.5788 12.5696 49.5788H18.0084C18.7365 49.5788 19.3836 49.1125 19.6136 48.4214L25.052 32.1061C25.1098 31.9333 25.1393 31.7526 25.1393 31.5706V9.8165C25.1393 8.88167 24.3817 8.12402 23.4468 8.12402ZM21.7543 31.296L16.7884 46.1934H14.262V31.5706C14.262 30.6358 13.5044 29.8781 12.5696 29.8781H3.3852V11.509H21.7543V31.296Z" fill="#CEEF08"/>
<path d="M56.0772 8.12402H34.3231C33.3883 8.12402 32.6306 8.88167 32.6306 9.8165V31.5706C32.6306 32.5054 33.3883 33.2631 34.3231 33.2631H43.5079V47.8863C43.5079 48.8207 44.2655 49.5788 45.2004 49.5788H50.6388C51.3673 49.5788 52.0139 49.1125 52.2444 48.4214L57.6828 32.1061C57.7401 31.9333 57.7697 31.7526 57.7697 31.5706V9.8165C57.7697 8.88167 57.012 8.12402 56.0772 8.12402ZM54.3847 31.296L49.4188 46.1934H46.8928V31.5706C46.8928 30.6358 46.1348 29.8781 45.2004 29.8781H36.0156V11.509H54.3847V31.296Z" fill="#CEEF08"/>
</g>
<defs>
<clipPath id="clip0_999_16580">
<rect width="57.77" height="57.77" fill="white" transform="translate(0.000244141)"/>
</clipPath>
</defs>
</svg>
