<svg width="12" height="13" viewBox="0 0 12 13" fill="none" xmlns="http://www.w3.org/2000/svg">
<g clip-path="url(#clip0_1021_11243)">
<g clip-path="url(#clip1_1021_11243)">
<path d="M6.91 1.84473C6.91 1.74451 6.85015 1.65398 6.75793 1.61471C6.66571 1.57545 6.55897 1.59506 6.48672 1.66453L5.59774 2.51931C4.27413 3.79202 3.15572 5.26212 2.2823 6.8773C2.26174 6.91362 2.25 6.95559 2.25 7.00031C2.25 7.13837 2.36193 7.2503 2.5 7.2503H4.655V10.8447C4.655 10.9437 4.71342 11.0334 4.80398 11.0734C4.89453 11.1134 5.00017 11.0962 5.07335 11.0296L5.47111 10.6673C6.86347 9.39886 8.0451 7.91701 8.97165 6.27724L9.21765 5.84181C9.26137 5.76441 9.2607 5.66961 9.21593 5.59283C9.17115 5.51604 9.08887 5.46883 9 5.46883H6.91V1.84473Z" fill="white"/>
</g>
</g>
<defs>
<clipPath id="clip0_1021_11243">
<rect width="12" height="12" fill="white" transform="translate(0 0.344727)"/>
</clipPath>
<clipPath id="clip1_1021_11243">
<rect width="12" height="12" fill="white" transform="translate(0 0.344727)"/>
</clipPath>
</defs>
</svg>
