<svg width="50" height="51" viewBox="0 0 50 51" fill="none" xmlns="http://www.w3.org/2000/svg">
<rect y="0.936523" width="50" height="50" rx="25" fill="white"/>
<path d="M33.6427 13.9365H15.3573C14.5997 13.9372 13.8734 14.2385 13.3377 14.7742C12.802 15.3099 12.5007 16.0363 12.5 16.7939V35.0792C12.5 36.6565 13.7813 37.9365 15.3573 37.9365H33.6427C34.4003 37.9358 35.1266 37.6346 35.6623 37.0989C36.198 36.5631 36.4993 35.8368 36.5 35.0792V16.7939C36.4993 16.0363 36.198 15.3099 35.6623 14.7742C35.1266 14.2385 34.4003 13.9372 33.6427 13.9365ZM31.36 24.4072C30.519 24.4888 29.6728 24.3165 28.9307 23.9125C28.3047 23.575 27.7731 23.0865 27.384 22.4912V29.0832C27.384 30.0468 27.0983 30.9887 26.5629 31.7899C26.0276 32.5911 25.2667 33.2156 24.3764 33.5843C23.4862 33.9531 22.5066 34.0496 21.5615 33.8616C20.6164 33.6736 19.7483 33.2096 19.067 32.5282C18.3856 31.8469 17.9216 30.9787 17.7336 30.0337C17.5456 29.0886 17.6421 28.109 18.0109 27.2188C18.3796 26.3285 19.0041 25.5676 19.8053 25.0323C20.6065 24.4969 21.5484 24.2112 22.512 24.2112C22.6133 24.2112 22.712 24.2205 22.812 24.2259V26.6272C22.712 26.6152 22.6147 26.5965 22.512 26.5965C21.8525 26.5965 21.22 26.8585 20.7537 27.3249C20.2873 27.7912 20.0253 28.4237 20.0253 29.0832C20.0253 29.7427 20.2873 30.3752 20.7537 30.8415C21.22 31.3079 21.8525 31.5699 22.512 31.5699C23.8853 31.5699 25.0987 30.4885 25.0987 29.1152L25.1227 17.9179H27.42C27.5251 18.9158 27.9776 19.845 28.6982 20.5432C29.4189 21.2415 30.3619 21.6643 31.3627 21.7379V24.4072" fill="black"/>
</svg>
