<svg width="50" height="51" viewBox="0 0 50 51" fill="none" xmlns="http://www.w3.org/2000/svg">
<rect y="0.936523" width="50" height="50" rx="25" fill="white"/>
<g clip-path="url(#clip0_375_16962)">
<path d="M15.9286 13.9365C14.0375 13.9365 12.5 15.474 12.5 17.3651V34.508C12.5 36.399 14.0375 37.9365 15.9286 37.9365H33.0714C34.9625 37.9365 36.5 36.399 36.5 34.508V17.3651C36.5 15.474 34.9625 13.9365 33.0714 13.9365H15.9286ZM31.8446 18.4365L26.2839 24.7901L32.825 33.4365H27.7036L23.6964 28.1919L19.1054 33.4365H16.5607L22.5071 26.6383L16.2339 18.4365H21.4839L25.1107 23.2312L29.3 18.4365H31.8446ZM29.8196 31.9151L20.7179 19.8776H19.2018L28.4054 31.9151H29.8143H29.8196Z" fill="black"/>
</g>
<defs>
<clipPath id="clip0_375_16962">
<rect width="24" height="27.4286" fill="white" transform="translate(12.5 12.2227)"/>
</clipPath>
</defs>
</svg>
